<svg width="539" height="392" viewBox="0 0 539 392" fill="none" xmlns="http://www.w3.org/2000/svg">
<g clip-path="url(#clip0_34_150)">
<path d="M313.967 69.105C324.068 69.105 332.258 60.9162 332.258 50.8148C332.258 40.7134 324.068 32.5247 313.967 32.5247C303.865 32.5247 295.676 40.7134 295.676 50.8148C295.676 60.9162 303.865 69.105 313.967 69.105Z" fill="#121212"/>
<path d="M455.856 340.552C483.043 319.845 496.028 285.049 487.899 251.856C487.697 251.031 487.484 250.208 487.259 249.387C481.87 229.684 468.536 210.958 449.103 204.662C432.786 199.376 414.975 203.441 397.952 201.339C364.535 197.212 338.627 170.175 320.398 141.867C302.169 113.559 288.159 81.8722 263.936 58.4855C224.009 19.9365 158.878 11.6369 109.374 36.7294C59.87 61.822 28.3365 117.492 29.6813 172.974C31.0262 228.456 63.9648 281.501 111.8 309.644C129.373 319.983 149.697 327.307 169.924 324.744C187.475 322.521 203.422 313.091 220.89 310.291C248.354 305.889 275.643 318.306 299.397 332.775C323.151 347.245 346.096 364.395 373.089 371.103C399.3 377.617 431.772 358.895 455.856 340.552Z" fill="#121212"/>
<path d="M416.794 37.8945C416.198 37.4972 415.595 37.1204 414.999 36.7368C397.771 25.719 379.305 16.7683 359.984 10.0695L355.504 71.8708H327.102V1.048C325.314 0.678094 323.512 0.328742 321.711 -6.10352e-05V71.8708H287.959C269.378 71.8708 251.559 64.4899 238.42 51.352C225.282 38.214 217.9 20.3952 217.9 1.81528C216.092 2.20574 214.297 2.62353 212.502 3.06878V71.8708H185.012L180.744 12.9397C160.888 20.5544 142.038 30.5682 124.612 42.758C124.311 42.9635 124.009 43.1759 123.715 43.3814C122.201 44.4431 120.707 45.5255 119.221 46.6215V282.394H200.24L198.808 262.563L190.931 153.681H349.578L341.7 262.563L340.268 282.394H420.39V40.2783C419.198 39.47 417.999 38.6754 416.794 37.8945ZM212.502 135.7H189.629L185.402 77.2686H212.502V135.7ZM321.711 135.7H283.294V134.542C283.294 133.985 283.184 133.434 282.971 132.92C282.758 132.406 282.445 131.939 282.052 131.546C281.658 131.153 281.19 130.841 280.676 130.629C280.161 130.417 279.61 130.308 279.054 130.309H262.352C261.796 130.308 261.246 130.418 260.732 130.63C260.218 130.843 259.752 131.155 259.358 131.548C258.965 131.941 258.653 132.408 258.441 132.922C258.228 133.435 258.119 133.986 258.119 134.542V135.7H217.9V77.2686H321.711V135.7ZM327.102 135.7V77.2686H355.113L350.887 135.7H327.102Z" fill="#2A2A2A"/>
<path d="M0 297.492C5.95108 304.543 12.3878 311.169 19.2632 317.323L519.737 318.008C526.612 311.854 533.049 305.228 539 298.177L0 297.492Z" fill="#2A2A2A"/>
<path d="M339.387 233.992V292.7C339.388 293.448 339.686 294.165 340.215 294.694C340.744 295.223 341.461 295.521 342.209 295.521H429.212C429.96 295.521 430.677 295.223 431.206 294.694C431.735 294.165 432.033 293.448 432.034 292.7V233.992C432.032 233.245 431.734 232.528 431.205 232C430.676 231.472 429.959 231.175 429.212 231.174H342.209C341.462 231.175 340.745 231.472 340.216 232C339.687 232.528 339.389 233.245 339.387 233.992Z" fill="#2A2A2A"/>
<path d="M341.428 234.723V291.976C341.429 292.375 341.588 292.759 341.871 293.041C342.153 293.324 342.537 293.483 342.936 293.484H428.487C428.887 293.483 429.27 293.324 429.553 293.041C429.836 292.759 429.995 292.375 429.995 291.976V234.723C429.995 234.322 429.837 233.938 429.554 233.655C429.271 233.372 428.888 233.212 428.487 233.211H342.936C342.536 233.212 342.153 233.372 341.87 233.655C341.587 233.938 341.428 234.322 341.428 234.723Z" fill="#F6AE2D"/>
<path d="M337.568 304.149C337.727 304.349 337.93 304.51 338.16 304.621C338.391 304.731 338.644 304.788 338.899 304.786H432.059C432.313 304.786 432.565 304.729 432.795 304.619C433.025 304.51 433.227 304.35 433.388 304.152C433.548 303.954 433.663 303.723 433.723 303.475C433.782 303.228 433.786 302.97 433.734 302.721L432.288 295.852C432.228 295.572 432.099 295.311 431.913 295.094C431.726 294.876 431.488 294.709 431.221 294.607C431.027 294.531 430.821 294.492 430.612 294.492H340.34C340.131 294.492 339.925 294.531 339.731 294.607C339.464 294.709 339.226 294.876 339.039 295.094C338.853 295.311 338.724 295.572 338.664 295.852L337.218 302.721C337.166 302.97 337.171 303.227 337.232 303.475C337.292 303.722 337.407 303.952 337.568 304.149Z" fill="#D99000"/>
<path d="M427.416 297.45H429.616C429.801 297.45 429.951 297.301 429.951 297.116V296.063C429.951 295.879 429.801 295.729 429.616 295.729H427.416C427.231 295.729 427.081 295.879 427.081 296.063V297.116C427.081 297.301 427.231 297.45 427.416 297.45Z" fill="#2A2A2A"/>
<path d="M421.677 297.45H423.878C424.062 297.45 424.212 297.301 424.212 297.116V296.063C424.212 295.879 424.062 295.729 423.878 295.729H421.677C421.493 295.729 421.343 295.879 421.343 296.063V297.116C421.343 297.301 421.493 297.45 421.677 297.45Z" fill="#2A2A2A"/>
<path d="M415.939 297.45H418.139C418.324 297.45 418.474 297.301 418.474 297.116V296.063C418.474 295.879 418.324 295.729 418.139 295.729H415.939C415.754 295.729 415.604 295.879 415.604 296.063V297.116C415.604 297.301 415.754 297.45 415.939 297.45Z" fill="#2A2A2A"/>
<path d="M410.2 297.45H412.401C412.585 297.45 412.735 297.301 412.735 297.116V296.063C412.735 295.879 412.585 295.729 412.401 295.729H410.2C410.016 295.729 409.866 295.879 409.866 296.063V297.116C409.866 297.301 410.016 297.45 410.2 297.45Z" fill="#2A2A2A"/>
<path d="M404.462 297.45H406.662C406.847 297.45 406.997 297.301 406.997 297.116V296.063C406.997 295.879 406.847 295.729 406.662 295.729H404.462C404.277 295.729 404.127 295.879 404.127 296.063V297.116C404.127 297.301 404.277 297.45 404.462 297.45Z" fill="#2A2A2A"/>
<path d="M398.723 297.45H400.924C401.108 297.45 401.258 297.301 401.258 297.116V296.063C401.258 295.879 401.108 295.729 400.924 295.729H398.723C398.539 295.729 398.389 295.879 398.389 296.063V297.116C398.389 297.301 398.539 297.45 398.723 297.45Z" fill="#2A2A2A"/>
<path d="M392.985 297.45H395.185C395.37 297.45 395.52 297.301 395.52 297.116V296.063C395.52 295.879 395.37 295.729 395.185 295.729H392.985C392.8 295.729 392.65 295.879 392.65 296.063V297.116C392.65 297.301 392.8 297.45 392.985 297.45Z" fill="#2A2A2A"/>
<path d="M387.246 297.45H389.447C389.631 297.45 389.781 297.301 389.781 297.116V296.063C389.781 295.879 389.631 295.729 389.447 295.729H387.246C387.061 295.729 386.912 295.879 386.912 296.063V297.116C386.912 297.301 387.061 297.45 387.246 297.45Z" fill="#2A2A2A"/>
<path d="M381.508 297.45H383.708C383.893 297.45 384.042 297.301 384.042 297.116V296.063C384.042 295.879 383.893 295.729 383.708 295.729H381.508C381.323 295.729 381.173 295.879 381.173 296.063V297.116C381.173 297.301 381.323 297.45 381.508 297.45Z" fill="#2A2A2A"/>
<path d="M375.769 297.45H377.97C378.154 297.45 378.304 297.301 378.304 297.116V296.063C378.304 295.879 378.154 295.729 377.97 295.729H375.769C375.584 295.729 375.435 295.879 375.435 296.063V297.116C375.435 297.301 375.584 297.45 375.769 297.45Z" fill="#2A2A2A"/>
<path d="M370.031 297.45H372.231C372.416 297.45 372.565 297.301 372.565 297.116V296.063C372.565 295.879 372.416 295.729 372.231 295.729H370.031C369.846 295.729 369.696 295.879 369.696 296.063V297.116C369.696 297.301 369.846 297.45 370.031 297.45Z" fill="#2A2A2A"/>
<path d="M364.292 297.45H366.492C366.677 297.45 366.827 297.301 366.827 297.116V296.063C366.827 295.879 366.677 295.729 366.492 295.729H364.292C364.107 295.729 363.958 295.879 363.958 296.063V297.116C363.958 297.301 364.107 297.45 364.292 297.45Z" fill="#2A2A2A"/>
<path d="M358.554 297.45H360.754C360.939 297.45 361.088 297.301 361.088 297.116V296.063C361.088 295.879 360.939 295.729 360.754 295.729H358.554C358.369 295.729 358.219 295.879 358.219 296.063V297.116C358.219 297.301 358.369 297.45 358.554 297.45Z" fill="#2A2A2A"/>
<path d="M352.815 297.45H355.015C355.2 297.45 355.35 297.301 355.35 297.116V296.063C355.35 295.879 355.2 295.729 355.015 295.729H352.815C352.63 295.729 352.481 295.879 352.481 296.063V297.116C352.481 297.301 352.63 297.45 352.815 297.45Z" fill="#2A2A2A"/>
<path d="M347.076 297.45H349.277C349.462 297.45 349.611 297.301 349.611 297.116V296.063C349.611 295.879 349.462 295.729 349.277 295.729H347.076C346.892 295.729 346.742 295.879 346.742 296.063V297.116C346.742 297.301 346.892 297.45 347.076 297.45Z" fill="#2A2A2A"/>
<path d="M341.338 297.45H343.538C343.723 297.45 343.873 297.301 343.873 297.116V296.063C343.873 295.879 343.723 295.729 343.538 295.729H341.338C341.153 295.729 341.003 295.879 341.003 296.063V297.116C341.003 297.301 341.153 297.45 341.338 297.45Z" fill="#2A2A2A"/>
<path d="M427.484 300.32H429.684C429.869 300.32 430.019 300.17 430.019 299.985V298.933C430.019 298.748 429.869 298.598 429.684 298.598H427.484C427.299 298.598 427.149 298.748 427.149 298.933V299.985C427.149 300.17 427.299 300.32 427.484 300.32Z" fill="#2A2A2A"/>
<path d="M421.745 300.32H423.946C424.13 300.32 424.28 300.17 424.28 299.985V298.933C424.28 298.748 424.13 298.598 423.946 298.598H421.745C421.56 298.598 421.411 298.748 421.411 298.933V299.985C421.411 300.17 421.56 300.32 421.745 300.32Z" fill="#2A2A2A"/>
<path d="M416.007 300.32H418.207C418.392 300.32 418.542 300.17 418.542 299.985V298.933C418.542 298.748 418.392 298.598 418.207 298.598H416.007C415.822 298.598 415.672 298.748 415.672 298.933V299.985C415.672 300.17 415.822 300.32 416.007 300.32Z" fill="#2A2A2A"/>
<path d="M410.268 300.32H412.469C412.653 300.32 412.803 300.17 412.803 299.985V298.933C412.803 298.748 412.653 298.598 412.469 298.598H410.268C410.083 298.598 409.934 298.748 409.934 298.933V299.985C409.934 300.17 410.083 300.32 410.268 300.32Z" fill="#2A2A2A"/>
<path d="M404.53 300.32H406.73C406.915 300.32 407.064 300.17 407.064 299.985V298.933C407.064 298.748 406.915 298.598 406.73 298.598H404.53C404.345 298.598 404.195 298.748 404.195 298.933V299.985C404.195 300.17 404.345 300.32 404.53 300.32Z" fill="#2A2A2A"/>
<path d="M398.791 300.32H400.992C401.176 300.32 401.326 300.17 401.326 299.985V298.933C401.326 298.748 401.176 298.598 400.992 298.598H398.791C398.606 298.598 398.457 298.748 398.457 298.933V299.985C398.457 300.17 398.606 300.32 398.791 300.32Z" fill="#2A2A2A"/>
<path d="M393.053 300.32H395.253C395.438 300.32 395.587 300.17 395.587 299.985V298.933C395.587 298.748 395.438 298.598 395.253 298.598H393.053C392.868 298.598 392.718 298.748 392.718 298.933V299.985C392.718 300.17 392.868 300.32 393.053 300.32Z" fill="#2A2A2A"/>
<path d="M387.314 300.32H389.514C389.699 300.32 389.849 300.17 389.849 299.985V298.933C389.849 298.748 389.699 298.598 389.514 298.598H387.314C387.129 298.598 386.979 298.748 386.979 298.933V299.985C386.979 300.17 387.129 300.32 387.314 300.32Z" fill="#2A2A2A"/>
<path d="M381.575 300.32H383.776C383.96 300.32 384.11 300.17 384.11 299.985V298.933C384.11 298.748 383.96 298.598 383.776 298.598H381.575C381.391 298.598 381.241 298.748 381.241 298.933V299.985C381.241 300.17 381.391 300.32 381.575 300.32Z" fill="#2A2A2A"/>
<path d="M375.837 300.32H378.037C378.222 300.32 378.372 300.17 378.372 299.985V298.933C378.372 298.748 378.222 298.598 378.037 298.598H375.837C375.652 298.598 375.502 298.748 375.502 298.933V299.985C375.502 300.17 375.652 300.32 375.837 300.32Z" fill="#2A2A2A"/>
<path d="M370.098 300.32H372.299C372.483 300.32 372.633 300.17 372.633 299.985V298.933C372.633 298.748 372.483 298.598 372.299 298.598H370.098C369.914 298.598 369.764 298.748 369.764 298.933V299.985C369.764 300.17 369.914 300.32 370.098 300.32Z" fill="#2A2A2A"/>
<path d="M364.36 300.32H366.56C366.745 300.32 366.895 300.17 366.895 299.985V298.933C366.895 298.748 366.745 298.598 366.56 298.598H364.36C364.175 298.598 364.025 298.748 364.025 298.933V299.985C364.025 300.17 364.175 300.32 364.36 300.32Z" fill="#2A2A2A"/>
<path d="M358.621 300.32H360.822C361.006 300.32 361.156 300.17 361.156 299.985V298.933C361.156 298.748 361.006 298.598 360.822 298.598H358.621C358.436 298.598 358.287 298.748 358.287 298.933V299.985C358.287 300.17 358.436 300.32 358.621 300.32Z" fill="#2A2A2A"/>
<path d="M352.883 300.32H355.083C355.268 300.32 355.417 300.17 355.417 299.985V298.933C355.417 298.748 355.268 298.598 355.083 298.598H352.883C352.698 298.598 352.548 298.748 352.548 298.933V299.985C352.548 300.17 352.698 300.32 352.883 300.32Z" fill="#2A2A2A"/>
<path d="M347.144 300.32H349.345C349.529 300.32 349.679 300.17 349.679 299.985V298.933C349.679 298.748 349.529 298.598 349.345 298.598H347.144C346.959 298.598 346.81 298.748 346.81 298.933V299.985C346.81 300.17 346.959 300.32 347.144 300.32Z" fill="#2A2A2A"/>
<path d="M341.406 300.32H343.606C343.791 300.32 343.94 300.17 343.94 299.985V298.933C343.94 298.748 343.791 298.598 343.606 298.598H341.406C341.221 298.598 341.071 298.748 341.071 298.933V299.985C341.071 300.17 341.221 300.32 341.406 300.32Z" fill="#2A2A2A"/>
<path d="M379.854 303.763H402.139C402.324 303.763 402.474 303.613 402.474 303.428V302.375C402.474 302.191 402.324 302.041 402.139 302.041H379.854C379.669 302.041 379.519 302.191 379.519 302.375V303.428C379.519 303.613 379.669 303.763 379.854 303.763Z" fill="#2A2A2A"/>
<path d="M356.243 245.737H354.295C353.705 245.737 353.226 246.216 353.226 246.806C353.226 247.397 353.705 247.876 354.295 247.876H356.243C356.834 247.876 357.313 247.397 357.313 246.806C357.313 246.216 356.834 245.737 356.243 245.737Z" fill="#EAEAEA"/>
<path d="M378.523 245.737H376.575C375.984 245.737 375.505 246.216 375.505 246.806C375.505 247.397 375.984 247.876 376.575 247.876H378.523C379.113 247.876 379.592 247.397 379.592 246.806C379.592 246.216 379.113 245.737 378.523 245.737Z" fill="#EAEAEA"/>
<path d="M384.835 245.737H382.887C382.297 245.737 381.818 246.216 381.818 246.806C381.818 247.397 382.297 247.876 382.887 247.876H384.835C385.426 247.876 385.905 247.397 385.905 246.806C385.905 246.216 385.426 245.737 384.835 245.737Z" fill="#EAEAEA"/>
<path d="M372.463 245.559H360.355C359.765 245.559 359.286 246.038 359.286 246.628C359.286 247.219 359.765 247.697 360.355 247.697H372.463C373.053 247.697 373.532 247.219 373.532 246.628C373.532 246.038 373.053 245.559 372.463 245.559Z" fill="#EAEAEA"/>
<path d="M402.168 245.559H390.061C389.47 245.559 388.992 246.038 388.992 246.628C388.992 247.219 389.47 247.697 390.061 247.697H402.168C402.759 247.697 403.238 247.219 403.238 246.628C403.238 246.038 402.759 245.559 402.168 245.559Z" fill="#EAEAEA"/>
<path d="M362.184 250.564H360.236C359.646 250.564 359.167 251.043 359.167 251.633C359.167 252.224 359.646 252.703 360.236 252.703H362.184C362.775 252.703 363.254 252.224 363.254 251.633C363.254 251.043 362.775 250.564 362.184 250.564Z" fill="#EAEAEA"/>
<path d="M384.464 250.564H382.516C381.925 250.564 381.447 251.043 381.447 251.633C381.447 252.224 381.925 252.703 382.516 252.703H384.464C385.055 252.703 385.533 252.224 385.533 251.633C385.533 251.043 385.055 250.564 384.464 250.564Z" fill="#EAEAEA"/>
<path d="M390.776 250.564H388.828C388.238 250.564 387.759 251.043 387.759 251.633C387.759 252.224 388.238 252.703 388.828 252.703H390.776C391.367 252.703 391.846 252.224 391.846 251.633C391.846 251.043 391.367 250.564 390.776 250.564Z" fill="#EAEAEA"/>
<path d="M378.404 250.386H366.296C365.706 250.386 365.227 250.865 365.227 251.455C365.227 252.046 365.706 252.524 366.296 252.524H378.404C378.994 252.524 379.473 252.046 379.473 251.455C379.473 250.865 378.994 250.386 378.404 250.386Z" fill="#EAEAEA"/>
<path d="M408.11 250.386H396.003C395.412 250.386 394.933 250.865 394.933 251.455C394.933 252.046 395.412 252.524 396.003 252.524H408.11C408.7 252.524 409.179 252.046 409.179 251.455C409.179 250.865 408.7 250.386 408.11 250.386Z" fill="#EAEAEA"/>
<path d="M368.126 255.391H366.178C365.587 255.391 365.108 255.87 365.108 256.46C365.108 257.051 365.587 257.53 366.178 257.53H368.126C368.716 257.53 369.195 257.051 369.195 256.46C369.195 255.87 368.716 255.391 368.126 255.391Z" fill="#EAEAEA"/>
<path d="M390.405 255.391H388.457C387.866 255.391 387.388 255.87 387.388 256.46C387.388 257.051 387.866 257.53 388.457 257.53H390.405C390.996 257.53 391.474 257.051 391.474 256.46C391.474 255.87 390.996 255.391 390.405 255.391Z" fill="#EAEAEA"/>
<path d="M396.718 255.391H394.77C394.179 255.391 393.7 255.87 393.7 256.46C393.7 257.051 394.179 257.53 394.77 257.53H396.718C397.308 257.53 397.787 257.051 397.787 256.46C397.787 255.87 397.308 255.391 396.718 255.391Z" fill="#EAEAEA"/>
<path d="M384.345 255.213H372.238C371.647 255.213 371.168 255.692 371.168 256.282C371.168 256.873 371.647 257.351 372.238 257.351H384.345C384.936 257.351 385.414 256.873 385.414 256.282C385.414 255.692 384.936 255.213 384.345 255.213Z" fill="#EAEAEA"/>
<path d="M414.051 255.213H401.944C401.353 255.213 400.874 255.692 400.874 256.282C400.874 256.873 401.353 257.351 401.944 257.351H414.051C414.642 257.351 415.12 256.873 415.12 256.282C415.12 255.692 414.642 255.213 414.051 255.213Z" fill="#EAEAEA"/>
<path d="M374.067 260.218H372.119C371.528 260.218 371.049 260.697 371.049 261.287C371.049 261.878 371.528 262.357 372.119 262.357H374.067C374.657 262.357 375.136 261.878 375.136 261.287C375.136 260.697 374.657 260.218 374.067 260.218Z" fill="#EAEAEA"/>
<path d="M396.346 260.218H394.398C393.808 260.218 393.329 260.697 393.329 261.287C393.329 261.878 393.808 262.357 394.398 262.357H396.346C396.937 262.357 397.416 261.878 397.416 261.287C397.416 260.697 396.937 260.218 396.346 260.218Z" fill="#EAEAEA"/>
<path d="M402.659 260.218H400.711C400.12 260.218 399.641 260.697 399.641 261.287C399.641 261.878 400.12 262.357 400.711 262.357H402.659C403.249 262.357 403.728 261.878 403.728 261.287C403.728 260.697 403.249 260.218 402.659 260.218Z" fill="#EAEAEA"/>
<path d="M390.286 260.04H378.179C377.588 260.04 377.109 260.519 377.109 261.109C377.109 261.7 377.588 262.178 378.179 262.178H390.286C390.877 262.178 391.355 261.7 391.355 261.109C391.355 260.519 390.877 260.04 390.286 260.04Z" fill="#EAEAEA"/>
<path d="M378.523 279.412H376.575C375.984 279.412 375.505 279.891 375.505 280.482C375.505 281.072 375.984 281.551 376.575 281.551H378.523C379.113 281.551 379.592 281.072 379.592 280.482C379.592 279.891 379.113 279.412 378.523 279.412Z" fill="#EAEAEA"/>
<path d="M384.835 279.412H382.887C382.297 279.412 381.818 279.891 381.818 280.482C381.818 281.072 382.297 281.551 382.887 281.551H384.835C385.426 281.551 385.905 281.072 385.905 280.482C385.905 279.891 385.426 279.412 384.835 279.412Z" fill="#EAEAEA"/>
<path d="M402.168 279.591H390.061C389.47 279.591 388.992 280.069 388.992 280.66C388.992 281.25 389.47 281.729 390.061 281.729H402.168C402.759 281.729 403.238 281.25 403.238 280.66C403.238 280.069 402.759 279.591 402.168 279.591Z" fill="#EAEAEA"/>
<path d="M356.243 279.412H354.295C353.705 279.412 353.226 279.891 353.226 280.482C353.226 281.072 353.705 281.551 354.295 281.551H356.243C356.834 281.551 357.313 281.072 357.313 280.482C357.313 279.891 356.834 279.412 356.243 279.412Z" fill="#EAEAEA"/>
<path d="M372.463 279.591H360.355C359.765 279.591 359.286 280.069 359.286 280.66C359.286 281.25 359.765 281.729 360.355 281.729H372.463C373.053 281.729 373.532 281.25 373.532 280.66C373.532 280.069 373.053 279.591 372.463 279.591Z" fill="#EAEAEA"/>
<path d="M362.184 274.585H360.236C359.646 274.585 359.167 275.064 359.167 275.655C359.167 276.245 359.646 276.724 360.236 276.724H362.184C362.775 276.724 363.254 276.245 363.254 275.655C363.254 275.064 362.775 274.585 362.184 274.585Z" fill="#EAEAEA"/>
<path d="M384.464 274.585H382.516C381.925 274.585 381.447 275.064 381.447 275.655C381.447 276.245 381.925 276.724 382.516 276.724H384.464C385.055 276.724 385.533 276.245 385.533 275.655C385.533 275.064 385.055 274.585 384.464 274.585Z" fill="#EAEAEA"/>
<path d="M390.776 274.585H388.828C388.238 274.585 387.759 275.064 387.759 275.655C387.759 276.245 388.238 276.724 388.828 276.724H390.776C391.367 276.724 391.846 276.245 391.846 275.655C391.846 275.064 391.367 274.585 390.776 274.585Z" fill="#EAEAEA"/>
<path d="M378.404 274.764H366.296C365.706 274.764 365.227 275.242 365.227 275.833C365.227 276.423 365.706 276.902 366.296 276.902H378.404C378.994 276.902 379.473 276.423 379.473 275.833C379.473 275.242 378.994 274.764 378.404 274.764Z" fill="#EAEAEA"/>
<path d="M368.126 269.758H366.178C365.587 269.758 365.108 270.237 365.108 270.828C365.108 271.418 365.587 271.897 366.178 271.897H368.126C368.716 271.897 369.195 271.418 369.195 270.828C369.195 270.237 368.716 269.758 368.126 269.758Z" fill="#EAEAEA"/>
<path d="M390.405 269.758H388.457C387.866 269.758 387.388 270.237 387.388 270.828C387.388 271.418 387.866 271.897 388.457 271.897H390.405C390.996 271.897 391.474 271.418 391.474 270.828C391.474 270.237 390.996 269.758 390.405 269.758Z" fill="#EAEAEA"/>
<path d="M396.718 269.758H394.77C394.179 269.758 393.7 270.237 393.7 270.828C393.7 271.418 394.179 271.897 394.77 271.897H396.718C397.308 271.897 397.787 271.418 397.787 270.828C397.787 270.237 397.308 269.758 396.718 269.758Z" fill="#EAEAEA"/>
<path d="M384.345 269.937H372.238C371.647 269.937 371.168 270.415 371.168 271.006C371.168 271.596 371.647 272.075 372.238 272.075H384.345C384.936 272.075 385.414 271.596 385.414 271.006C385.414 270.415 384.936 269.937 384.345 269.937Z" fill="#EAEAEA"/>
<path d="M374.067 264.931H372.119C371.528 264.931 371.049 265.41 371.049 266.001C371.049 266.591 371.528 267.07 372.119 267.07H374.067C374.657 267.07 375.136 266.591 375.136 266.001C375.136 265.41 374.657 264.931 374.067 264.931Z" fill="#EAEAEA"/>
<path d="M396.346 264.931H394.398C393.808 264.931 393.329 265.41 393.329 266.001C393.329 266.591 393.808 267.07 394.398 267.07H396.346C396.937 267.07 397.416 266.591 397.416 266.001C397.416 265.41 396.937 264.931 396.346 264.931Z" fill="#EAEAEA"/>
<path d="M402.659 264.931H400.711C400.12 264.931 399.641 265.41 399.641 266.001C399.641 266.591 400.12 267.07 400.711 267.07H402.659C403.249 267.07 403.728 266.591 403.728 266.001C403.728 265.41 403.249 264.931 402.659 264.931Z" fill="#EAEAEA"/>
<path d="M390.286 265.109H378.179C377.588 265.109 377.109 265.588 377.109 266.179C377.109 266.769 377.588 267.248 378.179 267.248H390.286C390.877 267.248 391.355 266.769 391.355 266.179C391.355 265.588 390.877 265.109 390.286 265.109Z" fill="#EAEAEA"/>
<path d="M345.887 335.983L336.742 321.528L365.446 298.647L377.294 285.522C378.833 283.816 380.793 282.545 382.978 281.834C385.162 281.124 387.495 280.999 389.743 281.472C391.991 281.946 394.075 283.001 395.788 284.532C397.5 286.064 398.781 288.018 399.502 290.199C400.569 293.431 400.34 296.952 398.861 300.018C397.382 303.084 394.77 305.456 391.576 306.633L372.841 313.534L345.887 335.983Z" fill="#808080"/>
<path d="M131.314 231.176V301.431H180.534V231.176C180.535 230.671 180.374 230.179 180.074 229.772C179.775 229.365 179.352 229.065 178.87 228.916C178.642 228.841 178.404 228.804 178.164 228.806H133.692C133.38 228.806 133.071 228.867 132.783 228.985C132.494 229.104 132.233 229.279 132.012 229.499C131.791 229.719 131.616 229.98 131.496 230.268C131.376 230.556 131.315 230.865 131.314 231.176ZM150.523 255.316C150.536 253.931 151.095 252.607 152.079 251.632C153.063 250.657 154.392 250.111 155.777 250.111C157.162 250.111 158.491 250.657 159.475 251.632C160.459 252.607 161.018 253.931 161.031 255.316V263.468C161.024 264.856 160.468 266.186 159.483 267.165C158.498 268.145 157.166 268.695 155.777 268.695C154.388 268.695 153.056 268.145 152.071 267.165C151.087 266.186 150.53 264.856 150.523 263.468V255.316Z" fill="#D99000"/>
<path d="M131.164 299.184V305.959C131.165 306.309 131.304 306.646 131.552 306.895C131.799 307.143 132.135 307.285 132.486 307.287H179.363C179.714 307.286 180.051 307.145 180.298 306.896C180.546 306.647 180.685 306.31 180.685 305.959V299.184H131.164Z" fill="#2A2A2A"/>
<path d="M53.885 125.329V253.603C53.8863 255.238 54.5363 256.805 55.6922 257.961C56.8482 259.117 58.4156 259.767 60.0503 259.768H250.148C251.783 259.767 253.35 259.117 254.506 257.961C255.662 256.805 256.312 255.238 256.313 253.603V125.329C256.309 123.696 255.658 122.131 254.503 120.977C253.347 119.822 251.781 119.173 250.148 119.171H60.0503C58.417 119.173 56.8511 119.822 55.6955 120.977C54.5399 122.131 53.8889 123.696 53.885 125.329Z" fill="#2A2A2A"/>
<path d="M58.3445 126.925V252.021C58.346 252.895 58.6936 253.732 59.3112 254.349C59.9288 254.967 60.7661 255.314 61.6395 255.316H248.565C249.439 255.314 250.276 254.967 250.894 254.349C251.511 253.732 251.859 252.895 251.86 252.021V126.925C251.86 126.051 251.513 125.212 250.896 124.593C250.278 123.974 249.44 123.625 248.565 123.624H61.6395C60.765 123.626 59.927 123.974 59.3093 124.593C58.6915 125.212 58.3446 126.051 58.3445 126.925Z" fill="#EAEAEA"/>
<path d="M93.0348 306.828C93.2251 307.067 93.4669 307.259 93.7422 307.391C94.0174 307.523 94.319 307.59 94.6241 307.589H205.833C206.137 307.588 206.437 307.52 206.712 307.389C206.986 307.258 207.228 307.068 207.42 306.832C207.611 306.595 207.748 306.319 207.819 306.024C207.891 305.728 207.896 305.42 207.833 305.123L206.107 296.923C206.035 296.589 205.881 296.278 205.659 296.018C205.436 295.758 205.152 295.559 204.833 295.437C204.601 295.346 204.355 295.3 204.107 295.3H96.3435C96.095 295.3 95.8487 295.346 95.6174 295.437C95.2979 295.559 95.0139 295.758 94.7914 296.018C94.5688 296.278 94.4148 296.589 94.3432 296.923L92.6169 305.123C92.5555 305.42 92.5612 305.728 92.6334 306.023C92.7057 306.318 92.8428 306.593 93.0348 306.828Z" fill="#D99000"/>
<path d="M242.499 140.856H67.5934C67.4116 140.852 67.2386 140.777 67.1114 140.647C66.9843 140.517 66.9131 140.342 66.9131 140.161C66.9131 139.979 66.9843 139.804 67.1114 139.674C67.2386 139.544 67.4116 139.469 67.5934 139.465H242.499C242.681 139.469 242.854 139.544 242.981 139.674C243.108 139.804 243.179 139.979 243.179 140.161C243.179 140.342 243.108 140.517 242.981 140.647C242.854 140.777 242.681 140.852 242.499 140.856Z" fill="#2A2A2A"/>
<path d="M79.4994 135.914C81.7506 135.914 83.5756 134.048 83.5756 131.747C83.5756 129.446 81.7506 127.58 79.4994 127.58C77.2481 127.58 75.4231 129.446 75.4231 131.747C75.4231 134.048 77.2481 135.914 79.4994 135.914Z" fill="#2A2A2A"/>
<path d="M93.5809 135.914C95.8321 135.914 97.6571 134.048 97.6571 131.747C97.6571 129.446 95.8321 127.58 93.5809 127.58C91.3296 127.58 89.5046 129.446 89.5046 131.747C89.5046 134.048 91.3296 135.914 93.5809 135.914Z" fill="#2A2A2A"/>
<path d="M107.663 135.914C109.914 135.914 111.739 134.048 111.739 131.747C111.739 129.446 109.914 127.58 107.663 127.58C105.411 127.58 103.586 129.446 103.586 131.747C103.586 134.048 105.411 135.914 107.663 135.914Z" fill="#2A2A2A"/>
<path d="M234.019 128.61H224.018C223.82 128.615 223.632 128.697 223.494 128.838C223.356 128.98 223.278 129.17 223.278 129.367C223.278 129.565 223.356 129.755 223.494 129.897C223.632 130.038 223.82 130.12 224.018 130.124H234.019C234.218 130.122 234.408 130.041 234.548 129.899C234.687 129.757 234.766 129.566 234.766 129.367C234.766 129.168 234.687 128.978 234.548 128.836C234.408 128.694 234.218 128.613 234.019 128.61Z" fill="#2A2A2A"/>
<path d="M234.02 131.453H224.018C223.82 131.458 223.632 131.539 223.493 131.681C223.355 131.822 223.278 132.012 223.278 132.21C223.278 132.408 223.355 132.598 223.493 132.74C223.632 132.881 223.82 132.963 224.018 132.967H234.02C234.219 132.965 234.409 132.884 234.549 132.742C234.689 132.601 234.767 132.409 234.767 132.21C234.767 132.011 234.689 131.82 234.549 131.678C234.409 131.536 234.219 131.456 234.02 131.453Z" fill="#2A2A2A"/>
<path d="M234.019 134.296H224.018C223.82 134.301 223.632 134.382 223.494 134.524C223.356 134.665 223.278 134.855 223.278 135.053C223.278 135.251 223.356 135.441 223.494 135.582C223.632 135.723 223.82 135.805 224.018 135.81H234.019C234.218 135.807 234.408 135.726 234.548 135.584C234.687 135.443 234.766 135.252 234.766 135.053C234.766 134.854 234.687 134.663 234.548 134.521C234.408 134.38 234.218 134.299 234.019 134.296Z" fill="#2A2A2A"/>
<path d="M475.138 302.157C475.44 303.036 476.012 303.796 476.773 304.329C477.534 304.862 478.445 305.14 479.374 305.124L497.522 304.657C498.457 304.639 499.362 304.318 500.101 303.743C500.839 303.168 501.372 302.369 501.619 301.467L504.187 274.007C505.098 274.419 506.09 274.623 507.09 274.603C507.959 274.581 508.815 274.389 509.609 274.036C510.404 273.683 511.121 273.178 511.72 272.548C512.319 271.918 512.788 271.177 513.1 270.366C513.412 269.555 513.562 268.69 513.54 267.821C513.518 266.952 513.326 266.096 512.973 265.302C512.62 264.508 512.115 263.791 511.485 263.192C510.855 262.593 510.113 262.124 509.302 261.811C508.491 261.499 507.627 261.349 506.758 261.371C506.358 261.37 505.959 261.411 505.568 261.495C505.143 261.035 504.627 260.669 504.052 260.421C503.477 260.173 502.856 260.048 502.23 260.054L474.314 260.775C474.082 260.784 473.852 260.812 473.625 260.861C473.013 260.975 472.433 261.219 471.923 261.576C471.413 261.933 470.985 262.396 470.669 262.932C470.352 263.469 470.155 264.067 470.089 264.686C470.023 265.305 470.091 265.931 470.287 266.522L475.138 302.157ZM504.714 272.142L506.541 265.599C506.749 264.843 506.754 264.045 506.555 263.287C506.644 263.287 506.722 263.245 506.81 263.244C508.063 263.219 509.276 263.691 510.181 264.557C511.087 265.423 511.612 266.614 511.641 267.866C511.67 269.119 511.202 270.333 510.338 271.24C509.474 272.148 508.285 272.677 507.032 272.709C506.222 272.735 505.42 272.539 504.714 272.142Z" fill="#D99000"/>
<path d="M473.625 260.861C474.22 264.261 480.907 266.652 488.947 266.236C496.34 265.895 502.386 263.299 503.493 260.223C503.083 260.102 502.657 260.045 502.23 260.054L474.314 260.775C474.083 260.784 473.852 260.812 473.625 260.861Z" fill="#2A2A2A"/>
<path d="M490.42 287.068C490.457 287.058 490.492 287.043 490.524 287.022L494.465 284.443C494.512 284.411 494.552 284.369 494.579 284.319C494.606 284.269 494.62 284.213 494.62 284.156C494.62 284.099 494.606 284.043 494.579 283.993C494.552 283.943 494.513 283.901 494.465 283.87L490.369 281.187C490.331 281.162 490.289 281.145 490.245 281.136C490.2 281.128 490.155 281.128 490.111 281.137C490.067 281.146 490.025 281.164 489.987 281.189C489.95 281.214 489.918 281.247 489.893 281.285C489.869 281.322 489.852 281.365 489.843 281.409C489.835 281.453 489.835 281.499 489.845 281.543C489.854 281.587 489.872 281.629 489.897 281.666C489.923 281.703 489.955 281.735 489.993 281.759L493.652 284.156L490.149 286.449C490.081 286.493 490.031 286.56 490.008 286.638C489.985 286.716 489.99 286.799 490.023 286.873C490.055 286.947 490.113 287.008 490.186 287.043C490.259 287.079 490.342 287.087 490.42 287.068Z" fill="#F6AE2D"/>
<path d="M484.195 287.355C484.262 287.338 484.321 287.302 484.367 287.251C484.412 287.2 484.441 287.137 484.451 287.069C484.46 287.002 484.449 286.933 484.419 286.871C484.389 286.81 484.341 286.759 484.282 286.725L480.649 284.643L484.16 282.035C484.196 282.008 484.227 281.974 484.25 281.936C484.273 281.897 484.288 281.855 484.295 281.81C484.301 281.766 484.299 281.72 484.288 281.677C484.277 281.633 484.258 281.592 484.231 281.556C484.204 281.52 484.17 281.489 484.132 281.466C484.093 281.443 484.051 281.428 484.006 281.422C483.962 281.415 483.916 281.417 483.873 281.428C483.829 281.439 483.788 281.459 483.752 281.485L479.821 284.405C479.775 284.439 479.739 284.484 479.715 284.535C479.691 284.587 479.68 284.644 479.683 284.7C479.686 284.757 479.704 284.812 479.734 284.86C479.764 284.909 479.805 284.949 479.855 284.977L483.941 287.32C484.018 287.364 484.109 287.376 484.195 287.355Z" fill="#F6AE2D"/>
<path d="M490.028 289.328C490.062 289.32 490.093 289.306 490.122 289.288C490.161 289.265 490.194 289.234 490.221 289.198C490.247 289.162 490.267 289.121 490.277 289.077C490.288 289.033 490.29 288.988 490.283 288.943C490.276 288.899 490.26 288.856 490.237 288.818L484.65 279.633C484.603 279.555 484.527 279.5 484.438 279.479C484.35 279.457 484.257 279.472 484.18 279.519C484.102 279.566 484.046 279.642 484.025 279.731C484.003 279.819 484.018 279.912 484.065 279.99L489.652 289.174C489.69 289.237 489.747 289.285 489.815 289.313C489.883 289.341 489.957 289.346 490.028 289.328Z" fill="#F6AE2D"/>
<path d="M175.944 178.668H145.672C144.437 178.668 143.436 179.669 143.436 180.904V183.862C143.436 185.096 144.437 186.098 145.672 186.098H175.944C177.179 186.098 178.18 185.096 178.18 183.862V180.904C178.18 179.669 177.179 178.668 175.944 178.668Z" fill="#F6AE2D"/>
<path d="M193.59 193.527H128.027C126.792 193.527 125.791 194.528 125.791 195.763V198.72C125.791 199.955 126.792 200.956 128.027 200.956H193.59C194.825 200.956 195.826 199.955 195.826 198.72V195.763C195.826 194.528 194.825 193.527 193.59 193.527Z" fill="#808080"/>
<path d="M193.59 208.386H128.027C126.792 208.386 125.791 209.387 125.791 210.622V213.579C125.791 214.814 126.792 215.815 128.027 215.815H193.59C194.825 215.815 195.826 214.814 195.826 213.579V210.622C195.826 209.387 194.825 208.386 193.59 208.386Z" fill="#808080"/>
<path d="M199.148 258.142L199.296 258.611L199.304 258.626L203.774 272.215L208.916 287.875L218.591 317.304L218.684 321.875V321.891L219.403 358.665L217.411 363.651L219.653 371.824C219.653 371.824 218.622 359.469 213.089 366.564C209.955 370.597 206.29 374.723 203.282 378.591C207.666 380.365 212.12 381.969 216.645 383.404C217.622 383.717 218.606 384.014 219.591 384.311C219.802 384.373 220.013 384.436 220.224 384.498C235.223 388.934 250.728 391.426 266.362 391.914C267.174 391.938 267.971 391.953 268.745 391.969C269.019 391.977 269.284 391.984 269.55 391.984C270.425 391.992 271.293 392 272.168 392C273.934 392 275.692 391.974 277.443 391.922C290.399 391.557 303.28 389.815 315.868 386.725C315.782 381.529 315.547 375.457 315.211 368.971C315.055 365.791 311.546 362.345 311.335 359.016C311.187 356.515 314.336 354.163 314.172 351.623C313.109 335.987 311.78 341.989 310.796 330.916C310.694 329.83 310.6 328.791 310.514 327.799C309.881 320.688 309.444 316.241 309.444 316.241L313.648 289.743L320.252 248.139L319.744 247.303L319.173 247.022L284.343 229.784L282.452 224.939C281.901 223.543 280.945 222.344 279.707 221.496C278.469 220.648 277.005 220.189 275.505 220.18L252.561 220.086C251.37 220.081 250.195 220.359 249.134 220.899C248.072 221.438 247.155 222.223 246.458 223.188L240.245 231.792L199.148 258.142Z" fill="#2A2A2A"/>
<path d="M223.881 310.756L218.684 321.875L215.137 329.471L209.033 361.424L205.978 364.667L203.36 353.186L175.96 359.27C175.061 354.276 175.719 359.439 175.165 353.961C175.321 353.805 175.485 353.648 175.649 353.492C176.087 353.086 176.454 352.703 176.446 352.336C176.134 333.441 177.071 301.285 184.902 281.803C186.128 278.623 187.745 275.607 189.715 272.825C189.872 272.614 190.02 272.403 190.169 272.192C193.779 267.136 196.061 262.158 199.296 258.618V258.611C199.316 258.594 199.335 258.576 199.351 258.556C199.363 258.55 199.373 258.542 199.382 258.532L221.607 246.748L222.561 273.536L223.24 292.79L223.881 310.756Z" fill="#2A2A2A"/>
<path d="M304.02 313.914L310.511 327.802L312.777 332.639L318.879 364.589L321.924 367.824L324.548 356.346L325.781 356.094L348.016 351.489L354.497 372.071C355.958 369.637 356.533 366.773 356.126 363.964C355.719 361.155 354.354 358.573 352.263 356.654C351.82 356.254 351.452 355.864 351.462 355.495C351.831 333.271 350.472 292.691 338.195 275.989C334.296 270.689 331.956 265.409 328.552 261.721C328.542 261.711 328.542 261.7 328.531 261.7L320.249 248.138L319.743 247.306L319.174 247.021L304.02 313.914Z" fill="#2A2A2A"/>
<path d="M264.695 213.557C281.553 213.557 295.219 199.891 295.219 183.034C295.219 166.177 281.553 152.511 264.695 152.511C247.837 152.511 234.171 166.177 234.171 183.034C234.171 199.891 247.837 213.557 264.695 213.557Z" fill="#808080"/>
<path d="M305.952 161.714C305.716 161.461 305.431 161.259 305.114 161.119C304.797 160.979 304.456 160.904 304.11 160.899L304.569 159.625C304.718 159.223 304.759 158.789 304.686 158.367C304.613 157.945 304.429 157.55 304.153 157.223C303.877 156.895 303.518 156.647 303.115 156.503C302.711 156.359 302.277 156.326 301.856 156.405L300.184 156.727L300.342 155.611C300.402 155.195 300.353 154.77 300.2 154.379C300.047 153.988 299.794 153.643 299.467 153.379C299.14 153.115 298.75 152.941 298.336 152.873C297.921 152.806 297.496 152.847 297.102 152.994C296.743 153.135 296.358 153.194 295.974 153.167C295.59 153.139 295.217 153.027 294.882 152.836C294.546 152.652 294.254 152.396 294.027 152.088C293.8 151.779 293.643 151.424 293.567 151.048L292.985 148.24L292.923 148.089C290.087 143.363 284.634 139.924 277.962 138.664C272.023 137.533 265.933 138.109 260.062 138.65C257.733 138.869 255.102 139.116 252.91 140.458C251.047 141.609 249.471 143.911 249.793 146.233C244.005 144.459 237.798 148 234.722 152.466C231.078 157.782 230.482 164.44 230.386 169.646C230.126 181.963 232.667 192.039 237.921 199.602C238.305 200.15 238.401 201.294 239.161 201.677L239.004 201.424C239.853 201.848 240.716 202.533 240.394 203.266C239.47 205.376 245.614 210.041 249.944 211.582C257.842 214.398 268.344 214.158 275.729 213.144L275.989 211.397C278.654 211.034 280.531 210.343 281.058 209.26C281.99 208.466 282.784 207.753 283.476 207.096L283.483 207.089C283.497 207.075 283.524 207.055 283.538 207.041C286.874 203.842 287.648 202.02 287.998 199.246C288.333 196.526 287.737 193.765 287.128 191.279C299.965 193.265 282.072 177.606 294.033 174.578C294.17 174.536 294.309 174.502 294.451 174.476C294.8 174.393 295.149 174.311 295.485 174.215C297.103 173.776 298.652 173.115 300.088 172.249C303.431 170.215 304.534 167.516 306.261 164.475C306.51 164.042 306.614 163.54 306.559 163.044C306.503 162.547 306.291 162.081 305.952 161.714Z" fill="#D99000"/>
<path d="M372.654 316.087C372.647 317.286 372.634 318.964 372.579 321.04C372.572 321.327 372.565 321.622 372.558 321.923C372.469 325.739 372.38 328.938 372.236 332.493C372.23 332.739 372.223 332.979 372.209 333.226C372.017 338.185 371.716 343.96 371.195 353.105C370.229 369.997 368.544 355.427 366.852 361.352C366.77 361.647 366.681 361.996 366.599 362.407C366.342 363.898 365.91 365.354 365.311 366.743C364.413 367.277 363.489 367.791 362.577 368.305C359.981 369.75 357.344 371.141 354.686 372.463C353.192 373.203 351.692 373.929 350.185 374.628C349.945 374.737 349.713 374.847 349.48 374.95C341.762 378.519 333.808 381.554 325.675 384.033C324.085 384.512 322.503 384.978 320.9 385.41C319.228 385.875 317.557 386.314 315.865 386.725C303.277 389.815 290.397 391.558 277.441 391.924C275.694 391.979 273.934 391.999 272.166 391.999C271.29 391.999 270.426 391.992 269.55 391.986C269.282 391.986 269.015 391.979 268.748 391.972C267.974 391.951 267.173 391.938 266.364 391.917C250.731 391.43 235.225 388.936 220.227 384.499L219.59 384.314C218.603 384.012 217.624 383.718 216.644 383.402C212.123 381.971 207.668 380.368 203.279 378.594C199.929 377.244 196.618 375.797 193.346 374.251C193.316 374.243 193.288 374.229 193.264 374.21C192.579 373.895 191.887 373.566 191.202 373.23C191.113 373.182 191.017 373.134 190.921 373.086C188.366 371.84 185.838 370.534 183.338 369.168C181.235 364.339 178.275 363.414 176.439 359.167C175.905 357.905 175.519 356.586 175.289 355.235C175.289 355.221 175.282 355.208 175.282 355.187C175.474 357.735 174.467 350.666 175.275 355.16C175.268 355.077 175.261 354.988 175.254 354.886C175.234 354.639 175.206 354.338 175.165 353.961C172.816 331.02 172.966 304.784 171.946 283.166C171.877 281.768 171.806 280.43 171.733 279.151C171.713 278.727 171.685 278.309 171.658 277.898C171.706 277.775 171.761 277.644 171.822 277.521C171.835 277.486 171.852 277.451 171.87 277.418C171.891 277.376 171.913 277.335 171.939 277.295C171.953 277.275 171.973 277.247 171.987 277.227C171.997 277.203 172.008 277.18 172.021 277.158C172.083 277.062 172.151 276.959 172.227 276.864C172.261 276.822 172.288 276.788 172.322 276.754C172.346 276.719 172.374 276.687 172.405 276.658C172.426 276.625 172.451 276.595 172.48 276.569C172.507 276.542 172.535 276.507 172.569 276.473C172.584 276.452 172.602 276.433 172.624 276.418C172.678 276.356 172.738 276.299 172.802 276.247C173.046 276.022 173.307 275.816 173.583 275.631C173.679 275.569 173.782 275.507 173.877 275.439C174.568 275.026 175.295 274.677 176.049 274.398C176.309 274.302 176.57 274.213 176.851 274.117C176.953 274.089 177.049 274.055 177.152 274.021C177.303 273.973 177.453 273.925 177.611 273.891C178.392 273.658 179.234 273.459 180.146 273.274C180.255 273.254 180.372 273.233 180.488 273.206C180.652 273.171 180.824 273.144 180.995 273.117C181.228 273.075 181.468 273.034 181.707 272.993C183.742 272.671 186.051 272.432 188.599 272.274C188.839 272.26 189.078 272.247 189.318 272.233C189.599 272.219 189.88 272.206 190.168 272.192C190.407 272.178 190.654 272.171 190.901 272.164C191.14 272.151 191.387 272.144 191.64 272.137C192.332 272.116 193.045 272.096 193.771 272.082C195.84 272.041 198.018 272.055 200.306 272.103C201.368 272.13 202.45 272.158 203.56 272.205C203.635 272.205 203.704 272.212 203.772 272.212C204.738 272.247 205.711 272.288 206.711 272.342C207.41 272.377 208.116 272.411 208.821 272.452C209.486 272.493 210.157 272.534 210.835 272.582C211.363 272.61 211.89 272.651 212.424 272.685C212.877 272.719 213.329 272.754 213.781 272.781L214.397 272.822C214.733 272.849 215.069 272.87 215.411 272.904C216.165 272.966 216.918 273.028 217.686 273.089C218.446 273.158 219.22 273.226 219.994 273.295C220.768 273.363 221.549 273.439 222.33 273.514C222.412 273.521 222.488 273.528 222.563 273.534C223.275 273.61 223.988 273.678 224.707 273.754C224.872 273.767 225.043 273.781 225.207 273.802C225.893 273.87 226.592 273.951 227.284 274.025C227.497 274.048 227.708 274.07 227.921 274.093C228.463 274.152 228.997 274.203 229.543 274.267C230.263 274.35 230.996 274.425 231.708 274.521C232.263 274.582 232.818 274.644 233.373 274.713C234.243 274.815 235.126 274.925 236.01 275.041C236.346 275.083 236.681 275.124 237.017 275.172C239.538 275.487 242.086 275.836 244.676 276.199C248.601 276.754 252.588 277.357 256.602 278.008C260.624 278.658 264.668 279.346 268.734 280.069C269.762 280.254 270.789 280.439 271.824 280.631C272.29 280.72 272.755 280.809 273.221 280.898C274.016 281.042 274.811 281.193 275.605 281.343C276.4 281.494 277.195 281.645 277.989 281.802C278.935 281.987 279.887 282.172 280.832 282.357C287.059 283.59 293.252 284.905 299.294 286.282C300.287 286.508 301.28 286.741 302.267 286.967C304.24 287.426 306.194 287.892 308.131 288.365C308.665 288.488 309.193 288.618 309.72 288.748C311.035 289.077 312.351 289.406 313.645 289.742L313.871 289.803C314.824 290.036 315.755 290.276 316.687 290.523C318.886 291.098 321.048 291.68 323.174 292.269C324.585 292.66 325.981 293.055 327.36 293.454C329.422 294.05 331.443 294.653 333.409 295.263C333.895 295.413 334.381 295.564 334.861 295.708C336.299 296.153 337.717 296.605 339.094 297.057C340.19 297.414 341.259 297.777 342.314 298.14C343.369 298.503 344.403 298.866 345.417 299.229C346.068 299.462 346.712 299.708 347.356 299.941C348.281 300.284 349.192 300.626 350.082 300.969C350.356 301.072 350.624 301.181 350.891 301.284C351.062 301.359 351.226 301.421 351.391 301.489C351.713 301.62 352.042 301.743 352.357 301.873C352.679 301.996 352.994 302.127 353.309 302.264C353.617 302.387 353.932 302.517 354.234 302.647C354.542 302.77 354.843 302.901 355.145 303.038C355.398 303.14 355.645 303.25 355.885 303.36C356.371 303.572 356.857 303.784 357.33 304.003C357.563 304.113 357.796 304.216 358.029 304.325L358.563 304.572C358.638 304.613 358.714 304.647 358.789 304.682C358.96 304.764 359.139 304.853 359.31 304.935C359.707 305.12 360.098 305.319 360.481 305.504C360.995 305.764 361.495 306.024 361.975 306.278C362.461 306.538 362.934 306.798 363.386 307.052C363.461 307.093 363.53 307.134 363.605 307.175C363.708 307.23 363.81 307.291 363.913 307.346C364.263 307.545 364.598 307.75 364.934 307.949C365.592 308.353 366.215 308.751 366.797 309.148C366.927 309.237 367.051 309.326 367.181 309.408C367.612 309.716 368.023 310.018 368.407 310.326C368.407 310.333 368.407 310.333 368.414 310.333C368.544 310.429 368.667 310.532 368.791 310.627C368.893 310.723 369.003 310.806 369.106 310.901C369.462 311.21 369.791 311.504 370.092 311.806C370.193 311.899 370.289 311.997 370.38 312.1C370.42 312.133 370.457 312.17 370.49 312.21C370.627 312.347 370.75 312.484 370.866 312.621C370.884 312.64 370.9 312.66 370.914 312.682C371.079 312.874 371.229 313.066 371.373 313.258C371.442 313.354 371.517 313.45 371.579 313.546C371.661 313.662 371.743 313.785 371.812 313.902C371.873 313.998 371.928 314.1 371.983 314.196C372.128 314.443 372.252 314.702 372.353 314.97C372.43 315.152 372.492 315.34 372.538 315.532C372.59 315.714 372.629 315.899 372.654 316.087Z" fill="#D99000"/>
<path opacity="0.2" d="M372.654 316.087C372.647 317.286 372.634 318.964 372.579 321.04C372.572 321.327 372.558 321.622 372.551 321.923C372.483 324.834 372.38 328.431 372.236 332.493C372.229 332.739 372.223 332.979 372.209 333.226C372.017 338.185 371.716 343.96 371.195 353.105C370.229 369.997 368.544 355.427 366.852 361.352C362.153 358.461 357.001 355.434 351.493 352.324C350.5 351.762 349.498 351.198 348.486 350.632C337.471 344.487 325.167 338.048 312.323 331.671C311.816 331.417 311.302 331.164 310.795 330.917C281.373 316.375 249.259 302.229 223.241 292.79C218.22 290.968 213.424 289.324 208.917 287.878C199.422 284.844 191.216 282.72 184.899 281.802C178.323 280.843 173.781 281.186 171.945 283.166C171.877 281.768 171.806 280.43 171.733 279.151C171.706 278.727 171.678 278.309 171.651 277.898C171.693 277.785 171.748 277.677 171.801 277.569C171.809 277.553 171.814 277.537 171.822 277.521C171.835 277.486 171.851 277.451 171.87 277.418C171.89 277.376 171.913 277.335 171.939 277.295C171.961 277.246 171.988 277.201 172.021 277.158C172.082 277.062 172.151 276.959 172.226 276.863C172.282 276.792 172.341 276.723 172.404 276.658C172.425 276.625 172.451 276.595 172.48 276.569C172.507 276.541 172.535 276.507 172.569 276.473C172.583 276.451 172.602 276.433 172.624 276.418C172.678 276.356 172.737 276.299 172.802 276.247C173.046 276.022 173.307 275.816 173.583 275.63C173.679 275.569 173.781 275.507 173.877 275.439C174.568 275.026 175.295 274.677 176.049 274.397C176.309 274.302 176.569 274.212 176.85 274.117C176.953 274.089 177.049 274.055 177.152 274.021C177.302 273.973 177.453 273.925 177.611 273.891C178.392 273.658 179.234 273.459 180.145 273.274C180.419 273.219 180.707 273.164 180.995 273.117C181.228 273.075 181.467 273.034 181.707 272.993C183.742 272.671 186.05 272.431 188.599 272.274C188.838 272.26 189.078 272.247 189.318 272.233C189.599 272.219 189.88 272.205 190.167 272.192C190.407 272.178 190.654 272.171 190.9 272.164C191.14 272.151 191.387 272.144 191.64 272.137C192.332 272.116 193.045 272.096 193.771 272.082C195.84 272.048 198.018 272.062 200.306 272.11C201.368 272.13 202.45 272.164 203.56 272.212C203.628 272.212 203.704 272.219 203.772 272.219C204.738 272.247 205.718 272.294 206.711 272.342C207.41 272.377 208.115 272.411 208.821 272.452C209.485 272.493 210.157 272.534 210.835 272.582C211.362 272.61 211.89 272.651 212.424 272.685C212.876 272.719 213.328 272.753 213.781 272.781C214.322 272.822 214.863 272.863 215.411 272.904C216.165 272.966 216.918 273.027 217.685 273.089C218.446 273.158 219.22 273.226 219.994 273.295C220.768 273.363 221.549 273.438 222.33 273.514C222.412 273.521 222.487 273.528 222.563 273.534C223.275 273.61 223.988 273.678 224.707 273.754C228.694 274.158 232.797 274.63 237.017 275.172C239.538 275.493 242.091 275.838 244.676 276.206C248.601 276.761 252.588 277.364 256.602 278.007C260.623 278.658 264.667 279.345 268.734 280.069C269.762 280.254 270.789 280.439 271.824 280.631C273.084 280.864 274.345 281.101 275.605 281.343C276.4 281.494 277.194 281.645 277.989 281.802C278.934 281.987 279.887 282.172 280.832 282.357C287.059 283.59 293.252 284.905 299.294 286.282C300.287 286.508 301.28 286.741 302.267 286.967C304.24 287.426 306.194 287.892 308.131 288.365C308.665 288.495 309.192 288.625 309.72 288.755C311.042 289.084 312.35 289.413 313.645 289.742V289.748C313.72 289.762 313.796 289.783 313.871 289.803C314.817 290.043 315.755 290.283 316.687 290.529C318.886 291.105 321.048 291.685 323.174 292.269C324.585 292.667 325.983 293.057 327.36 293.454C329.421 294.057 331.442 294.66 333.408 295.263C333.895 295.413 334.381 295.564 334.861 295.708C336.299 296.16 337.71 296.61 339.094 297.057C340.19 297.414 341.259 297.777 342.314 298.14C343.369 298.503 344.403 298.866 345.417 299.229C346.075 299.462 346.719 299.702 347.356 299.934C348.287 300.277 349.192 300.619 350.082 300.969C350.356 301.072 350.623 301.181 350.891 301.284C351.391 301.476 351.877 301.674 352.356 301.873C352.678 301.996 352.994 302.127 353.309 302.264C353.617 302.387 353.932 302.517 354.233 302.647C354.542 302.77 354.843 302.901 355.145 303.038C355.398 303.14 355.645 303.25 355.884 303.359C356.371 303.572 356.857 303.784 357.33 304.003C357.563 304.113 357.796 304.216 358.029 304.325L358.563 304.572C358.638 304.613 358.714 304.647 358.789 304.682C359.371 304.956 359.933 305.23 360.481 305.504C360.995 305.764 361.495 306.024 361.974 306.278C362.543 306.579 363.084 306.874 363.605 307.175C363.708 307.23 363.81 307.291 363.913 307.346C364.262 307.545 364.598 307.75 364.934 307.949C365.591 308.353 366.215 308.75 366.797 309.148C367.372 309.545 367.907 309.936 368.407 310.326C368.407 310.333 368.407 310.333 368.414 310.333C368.654 310.525 368.886 310.716 369.106 310.901C369.462 311.21 369.791 311.504 370.092 311.806C370.193 311.899 370.289 311.997 370.38 312.1C370.42 312.133 370.456 312.17 370.489 312.21C370.633 312.367 370.777 312.525 370.914 312.682C371.079 312.874 371.229 313.066 371.373 313.258C371.442 313.354 371.517 313.45 371.579 313.545C371.661 313.662 371.743 313.785 371.812 313.902C371.873 313.998 371.928 314.1 371.983 314.196C372.128 314.443 372.252 314.702 372.353 314.97C372.428 315.153 372.49 315.341 372.538 315.532C372.59 315.714 372.628 315.899 372.654 316.087Z" fill="black"/>
</g>
<defs>
<clipPath id="clip0_34_150">
<rect width="539" height="392" fill="white"/>
</clipPath>
</defs>
</svg>
