<svg width="466" height="407" viewBox="0 0 466 407" fill="none" xmlns="http://www.w3.org/2000/svg">
<g clip-path="url(#clip0_34_255)">
<path opacity="0.998" d="M421.326 146.872H394.411V160.835H421.326V146.872Z" fill="#2A2A2A"/>
<path opacity="0.998" d="M401.657 44.9924H374.742V58.9555H401.657V44.9924Z" fill="#2A2A2A"/>
<path opacity="0.998" d="M420.808 61.0242H393.893V74.9873H420.808V61.0242Z" fill="#2A2A2A"/>
<path opacity="0.998" d="M369.048 46.0267H342.133V59.9898H369.048V46.0267Z" fill="#2A2A2A"/>
<path opacity="0.998" d="M26.9152 196.001H0V209.964H26.9152V196.001Z" fill="#2A2A2A"/>
<path opacity="0.998" d="M422.879 78.0902H395.964V92.0534H422.879V78.0902Z" fill="#2A2A2A"/>
<path opacity="0.998" d="M388.2 62.0585H361.284V76.0216H388.2V62.0585Z" fill="#2A2A2A"/>
<path opacity="0.998" d="M453.935 184.624H427.02V198.587H453.935V184.624Z" fill="#2A2A2A"/>
<path opacity="0.998" d="M421.326 185.658H394.411V199.621H421.326V185.658Z" fill="#2A2A2A"/>
<path opacity="0.998" d="M26.9152 146.872H0V160.835H26.9152V146.872Z" fill="#2A2A2A"/>
<path opacity="0.998" d="M46.0663 162.903H19.1511V176.867H46.0663V162.903Z" fill="#2A2A2A"/>
<path opacity="0.998" d="M191.512 0H164.597V13.9632H191.512V0Z" fill="#2A2A2A"/>
<path opacity="0.998" d="M403.728 257.543H376.812V271.506H403.728V257.543Z" fill="#2A2A2A"/>
<path opacity="0.998" d="M48.1367 179.969H21.2216V193.933H48.1367V179.969Z" fill="#2A2A2A"/>
<path opacity="0.998" d="M210.663 16.0317H183.748V29.9949H210.663V16.0317Z" fill="#2A2A2A"/>
<path opacity="0.998" d="M112.319 110.671H85.4039V124.634H112.319V110.671Z" fill="#2A2A2A"/>
<path opacity="0.998" d="M131.47 126.703H104.555V140.666H131.47V126.703Z" fill="#2A2A2A"/>
<path opacity="0.998" d="M182.713 117.911H155.797V131.874H182.713V117.911Z" fill="#2A2A2A"/>
<path opacity="0.998" d="M133.541 143.769H106.625V157.732H133.541V143.769Z" fill="#2A2A2A"/>
<path opacity="0.998" d="M439.96 257.543H413.044V271.506H439.96V257.543Z" fill="#2A2A2A"/>
<path d="M260.394 29.7725C270.768 29.7725 280.717 33.89 288.052 41.2192C295.388 48.5483 299.509 58.4888 299.509 68.8538V85.5269H221.279V68.8538C221.279 58.4888 225.4 48.5483 232.735 41.2192C240.071 33.89 250.02 29.7725 260.394 29.7725Z" fill="#FFD369"/>
<path d="M260.668 121.604C285.292 121.604 305.254 107.899 305.254 90.9932C305.254 74.0876 285.292 60.3829 260.668 60.3829C236.044 60.3829 216.082 74.0876 216.082 90.9932C216.082 107.899 236.044 121.604 260.668 121.604Z" fill="#FFD369"/>
<path d="M232.087 120.647C232.087 120.647 241.403 169.295 232.087 182.416C222.77 195.536 260.554 200.728 260.554 200.728L299.664 186.517L305.135 151.531C305.135 151.531 281.326 138.137 286.258 111.079L232.087 120.647Z" fill="#EAEAEA"/>
<path d="M347.521 284.636C347.521 284.636 349.985 295.295 336.579 297.208C328.664 298.372 320.614 298.276 312.728 296.924L309.773 270.151H340.958L347.521 284.636Z" fill="#EAEAEA"/>
<path d="M110.802 270.994C110.802 270.994 104.881 295.036 118.287 297.208C131.693 299.38 180.916 299.396 180.916 299.396V270.952L158.629 275.71L137.707 255.665L110.802 270.994Z" fill="#EAEAEA"/>
<path opacity="0.1" d="M234.964 136.363L182.578 147.43C182.578 147.43 162.609 148.252 149.752 174.762C136.895 201.271 108.991 276.982 108.991 276.982C108.991 276.982 132.801 252.93 160.694 278.622L179.297 245.007L175.192 298.305H319.333V273.155C319.333 273.155 349.421 289.28 347.237 298.299C347.237 298.299 372.987 232.011 367.423 201.886C365.748 192.574 364.721 183.156 364.349 173.702C364.02 165.915 361.287 158.42 356.526 152.247C351.764 146.074 345.207 141.524 337.754 139.223C335.042 138.39 332.061 137.609 328.748 136.911C297.837 130.354 289.928 136.911 289.928 136.911C289.928 136.911 283.94 156.377 284.048 165.2C284.183 176.541 267.91 184.06 267.91 184.06C267.91 184.06 243.836 178.32 242.744 173.676C241.652 169.032 233.039 141.829 234.964 136.363Z" fill="#121212"/>
<path d="M234.964 135.272L182.578 146.339C182.578 146.339 162.609 147.161 149.752 173.671C136.895 200.18 108.986 275.902 108.986 275.902C108.986 275.902 132.795 251.849 160.689 277.541L179.291 243.926L175.187 297.208H319.333V272.064C319.333 272.064 349.421 288.189 347.237 297.208C347.237 297.208 372.987 230.919 367.423 200.795C365.748 191.483 364.721 182.065 364.349 172.61C364.02 164.824 361.287 157.329 356.526 151.156C351.764 144.983 345.207 140.433 337.754 138.132C335.042 137.299 332.061 136.518 328.748 135.82C297.837 129.263 289.928 135.82 289.928 135.82C289.928 135.82 283.94 155.286 284.048 164.108C284.183 175.45 267.909 182.969 267.909 182.969C267.909 182.969 243.836 177.229 242.744 172.585C241.652 167.941 233.039 140.738 234.964 135.272Z" fill="#F6AE2D"/>
<path opacity="0.1" d="M288.494 132.95C286.294 126.725 285.801 120.026 287.066 113.546L232.894 123.108C232.894 123.108 233.675 127.199 234.561 133.327C238.061 136.956 242.263 139.836 246.912 141.791C251.561 143.747 256.559 144.737 261.603 144.701C266.647 144.666 271.631 143.606 276.253 141.586C280.874 139.566 285.035 136.627 288.484 132.95H288.494Z" fill="#121212"/>
<path d="M297.734 105.07C297.793 109.951 296.889 114.796 295.074 119.328C293.259 123.86 290.569 127.99 287.156 131.483C283.744 134.977 279.676 137.764 275.186 139.686C270.695 141.609 265.869 142.629 260.984 142.688C256.099 142.747 251.25 141.844 246.714 140.031C242.178 138.218 238.044 135.529 234.548 132.12C227.487 125.234 223.453 115.827 223.334 105.97C223.339 105.67 223.339 105.37 223.339 105.07C223.336 99.6601 224.516 94.3147 226.795 89.4075C229.075 84.5002 232.399 80.1495 236.537 76.6591C240.674 73.1688 245.524 70.6231 250.747 69.1999C255.971 67.7767 261.443 67.5104 266.781 68.4194C275.022 69.8214 282.549 73.9576 288.147 80.16C293.746 86.3625 297.088 94.2691 297.635 102.603C297.701 103.42 297.734 104.243 297.734 105.07Z" fill="#EAEAEA"/>
<path d="M247.573 70.2295L247.625 70.1984C240.492 72.831 234.339 77.5856 229.996 83.8211C225.652 90.0566 223.327 97.4731 223.334 105.07C223.334 105.37 223.334 105.67 223.334 105.97C224.491 105.939 225.628 105.666 226.672 105.168C235.741 100.938 241.165 87.9989 243.318 78.9745C244.095 75.763 244.825 72.1067 247.573 70.2295Z" fill="#121212"/>
<path d="M276.046 71.2741C273.102 69.9226 269.992 68.9645 266.797 68.4246C269.417 69.027 271.757 70.4958 273.437 72.5929C274.261 73.712 274.944 74.9277 275.472 76.213C270.521 74.0501 265.158 72.9877 259.756 73.0993C254.354 73.2109 249.04 74.4939 244.183 76.8594C246.517 81.974 253.758 84.7615 258.593 86.6284C263.886 88.6695 269.235 90.5364 274.638 92.2292L269.856 88.3506L280.658 90.0675C280.774 87.9195 280.519 85.7676 279.902 83.7065C281.973 85.3718 284.716 85.9303 286.962 87.3266C291.17 89.9796 292.925 95.0839 295.218 99.5056C295.824 100.674 296.538 101.869 297.63 102.608C297.189 95.928 294.95 89.4905 291.151 83.9755C287.352 78.4604 282.134 74.0722 276.046 71.2741Z" fill="#121212"/>
<path d="M219.089 98.0989C219.089 98.0989 257.392 50.5208 301.704 98.0989L297.873 87.4404C297.873 87.4404 277.081 57.1041 262.314 63.6513C247.547 70.1985 233.044 74.858 233.044 74.858L219.089 98.0989Z" fill="#FFD369"/>
<path opacity="0.1" d="M187.63 200.594C187.63 200.594 179.426 222.459 190.911 242.137C202.397 261.814 180.792 270.016 180.792 270.016" fill="#121212"/>
<path opacity="0.1" d="M320.575 180.916C320.575 180.916 334.799 198.954 325.498 215.079C316.196 231.204 316.745 270.016 316.745 270.016" fill="#121212"/>
<path d="M175.047 286.141H333.158C336.641 286.141 339.981 287.523 342.443 289.984C344.906 292.444 346.29 295.782 346.29 299.261H161.921C161.921 295.783 163.303 292.446 165.765 289.986C168.226 287.525 171.565 286.142 175.047 286.141Z" fill="#121212"/>
<path d="M191.134 195.944H317.076C319.727 195.944 322.352 196.466 324.801 197.48C327.25 198.493 329.476 199.979 331.35 201.852C333.225 203.725 334.712 205.948 335.726 208.395C336.741 210.842 337.263 213.465 337.263 216.113V289.146H170.948V216.113C170.948 210.764 173.074 205.634 176.86 201.852C180.646 198.069 185.78 195.944 191.134 195.944Z" fill="#121212"/>
<path d="M253.965 256.488C259.405 256.488 263.815 252.081 263.815 246.646C263.815 241.211 259.405 236.805 253.965 236.805C248.525 236.805 244.115 241.211 244.115 246.646C244.115 252.081 248.525 256.488 253.965 256.488Z" fill="white"/>
<path opacity="0.1" d="M221.279 76.6422C221.279 76.6422 258.919 39.0554 299.514 75.9543" stroke="#121212" stroke-miterlimit="10"/>
<path d="M309.022 74.2477H305.244V95.6527H309.022V74.2477Z" fill="#FFD369"/>
<path d="M300.203 88.0972C303.656 88.0972 306.969 89.468 309.411 91.9082C311.853 94.3483 313.225 97.6579 313.225 101.109V101.947C313.225 105.397 311.853 108.707 309.411 111.147C306.969 113.587 303.656 114.958 300.203 114.958V88.0972Z" fill="#F6AE2D"/>
<path d="M303.562 89.7779C303.562 88.1556 302.246 86.8405 300.622 86.8405C298.998 86.8405 297.682 88.1556 297.682 89.7779V113.283C297.682 114.905 298.998 116.22 300.622 116.22C302.246 116.22 303.562 114.905 303.562 113.283V89.7779Z" fill="#121212"/>
<path d="M211.382 96.0717H215.161V74.6667H211.382V96.0717Z" fill="#FFD369"/>
<path d="M220.202 115.377C216.749 115.377 213.436 114.006 210.994 111.566C208.552 109.126 207.18 105.816 207.18 102.365V101.528C207.18 99.8189 207.516 98.127 208.171 96.5483C208.825 94.9697 209.785 93.5353 210.994 92.3271C212.203 91.1188 213.639 90.1604 215.219 89.5065C216.799 88.8526 218.492 88.516 220.202 88.516V115.377Z" fill="#F6AE2D"/>
<path d="M216.843 113.696C216.843 115.319 218.159 116.634 219.783 116.634C221.407 116.634 222.723 115.319 222.723 113.696V90.1916C222.723 88.5693 221.407 87.2542 219.783 87.2542C218.159 87.2542 216.843 88.5693 216.843 90.1916V113.696Z" fill="#121212"/>
<path d="M304.799 51.3689C299.68 40.7362 288.531 27.8797 264.499 26.8506V26.8196H264.209L255.694 27.223V27.2643C231.823 28.3607 220.725 41.1706 215.622 51.7671C212.223 58.9506 210.418 66.7834 210.332 74.7287L213.272 74.6563L216.212 74.5891C216.339 67.5154 217.967 60.5492 220.989 54.1512C227.47 40.85 239.395 33.7805 256.429 33.1237L263.96 32.7048C281.005 33.3564 292.936 40.4362 299.411 53.7323C302.438 60.1327 304.07 67.1026 304.198 74.1805L307.138 74.2478L310.078 74.3202C309.994 66.3791 308.193 58.55 304.799 51.3689Z" fill="#F6AE2D"/>
<path d="M439.111 299.432H38.1212V407H439.111V299.432Z" fill="#2A2A2A"/>
<path opacity="0.1" d="M439.111 306.672H38.1212V318.05H439.111V306.672Z" fill="#121212"/>
<path d="M466 297.881H11.2216V311.844H466V297.881Z" fill="#2A2A2A"/>
</g>
<defs>
<clipPath id="clip0_34_255">
<rect width="466" height="407" fill="white"/>
</clipPath>
</defs>
</svg>
